<?xml version="1.0" encoding="utf-8"?>
<!-- Generator: Adobe Illustrator 16.0.0, SVG Export Plug-In . SVG Version: 6.00 Build 0)  -->
<!DOCTYPE svg PUBLIC "-//W3C//DTD SVG 1.1//EN" "http://www.w3.org/Graphics/SVG/1.1/DTD/svg11.dtd">
<svg version="1.1" id="Layer_1" xmlns="http://www.w3.org/2000/svg" xmlns:xlink="http://www.w3.org/1999/xlink" x="0px" y="0px"
	 width="610.58px" height="760.056px" viewBox="0 0 610.58 760.056" enable-background="new 0 0 610.58 760.056"
	 xml:space="preserve">
<defs>
	<filter id="Adobe_OpacityMaskFilter" filterUnits="userSpaceOnUse" x="0" y="0" width="610.58" height="760.056">
		
			<feColorMatrix  type="matrix" values="-1 0 0 0 1  0 -1 0 0 1  0 0 -1 0 1  0 0 0 1 0" color-interpolation-filters="sRGB" result="source"/>
		<feFlood  style="flood-color:white;flood-opacity:1" result="back"/>
		<feBlend  in="source" in2="back" mode="normal"/>
	</filter>
</defs>
<mask maskUnits="userSpaceOnUse" x="0" y="0" width="610.58" height="760.056" id="SVGID_1_">
	<g filter="url(#Adobe_OpacityMaskFilter)">
		<g>
			<g>
				<path fill="#FFFFFF" d="M74.783,554.109c0,0,0.093,0.344,0.225,0.98c0.139,0.638,0.302,1.566,0.482,2.744
					c0.344,2.352,0.656,5.682,0.684,9.619c0.022,1.972-0.027,4.094-0.166,6.324c-0.115,2.234-0.35,4.572-0.751,6.966
					c-0.408,2.392-1.026,4.832-1.686,7.306c-0.658,2.477-1.302,4.995-1.867,7.526c-0.561,2.532-1.12,5.063-1.67,7.556
					c-0.532,2.496-1.121,4.941-1.665,7.312c-1.096,4.739-2.119,9.163-2.996,12.956c-0.885,3.789-1.585,6.953-2.056,9.162
					c-0.232,1.104-0.398,1.981-0.469,2.549c-0.021,0.145-0.039,0.271-0.054,0.383c-0.005,0.082-0.009,0.15-0.013,0.205
					c-0.011,0.113-0.018,0.172-0.018,0.172l-0.948,0.316c0,0-0.023-0.102-0.068-0.301c-0.02-0.098-0.05-0.236-0.067-0.373
					c-0.01-0.121-0.021-0.262-0.033-0.42c-0.058-0.648-0.081-1.547-0.09-2.7c-0.019-1.153,0.001-2.544,0.046-4.138
					c0.043-1.592,0.089-3.389,0.184-5.342c0.099-1.953,0.207-4.069,0.32-6.309c0.113-2.236,0.289-4.588,0.449-7.025
					c0.169-2.435,0.329-4.951,0.564-7.5c0.224-2.549,0.451-5.138,0.678-7.729c0.228-2.589,0.384-5.189,0.518-7.754
					c0.131-2.564,0.297-5.081,0.651-7.487c0.36-2.405,0.866-4.704,1.454-6.866c0.566-2.167,1.186-4.201,1.826-6.067
					c1.266-3.736,2.617-6.798,3.691-8.921c0.545-1.061,0.996-1.889,1.332-2.449c0.328-0.562,0.526-0.857,0.526-0.857L74.783,554.109
					z"/>
			</g>
			<g>
				<path fill="#FFFFFF" d="M262.87,784.135c0,0-0.213-0.285-0.57-0.828c-0.365-0.543-0.859-1.345-1.46-2.373
					c-1.187-2.061-2.704-5.041-4.181-8.691c-0.746-1.824-1.483-3.814-2.176-5.939c-0.716-2.121-1.36-4.38-1.868-6.752
					c-0.502-2.374-0.828-4.871-1.126-7.415c-0.301-2.543-0.631-5.122-1.038-7.683c-0.413-2.561-0.826-5.121-1.232-7.641
					c-0.425-2.515-0.78-5.005-1.147-7.41c-0.728-4.81-1.408-9.3-1.99-13.148c-0.574-3.85-1.089-7.048-1.466-9.275
					c-0.19-1.109-0.359-1.987-0.502-2.541c-0.035-0.143-0.065-0.268-0.092-0.376c-0.025-0.077-0.047-0.144-0.064-0.196
					c-0.031-0.109-0.047-0.166-0.047-0.166l0.766-0.643c0,0,0.059,0.086,0.174,0.254c0.054,0.083,0.133,0.201,0.2,0.322
					c0.054,0.109,0.116,0.236,0.186,0.379c0.293,0.581,0.646,1.407,1.08,2.477c0.442,1.064,0.937,2.364,1.481,3.861
					c0.547,1.498,1.167,3.184,1.798,5.035c0.628,1.854,1.308,3.859,2.027,5.98c0.72,2.123,1.423,4.374,2.171,6.697
					c0.741,2.326,1.52,4.725,2.24,7.181c0.731,2.452,1.475,4.942,2.218,7.435c0.743,2.49,1.556,4.966,2.377,7.399
					c0.823,2.432,1.597,4.833,2.155,7.2c0.552,2.367,0.929,4.691,1.179,6.919c0.273,2.222,0.447,4.341,0.539,6.313
					c0.2,3.938,0.073,7.284-0.144,9.652c-0.116,1.186-0.23,2.123-0.335,2.769c-0.098,0.644-0.173,0.991-0.173,0.991L262.87,784.135z
					"/>
			</g>
		</g>
	</g>
</mask>
<g mask="url(#SVGID_1_)">
	<path d="M521.511,412.387c1.287,2.367-1.084,3.346-2.854,5.76c-3.631,4.951-4.294,8.154-1.69,13.795
		c1.559,3.377,5.73,5.197,6.919,8.688c1.857,5.459-3.593,10.032-8.41,11.135c-0.033,0.008-2.89,7.439-3.426,8.287
		c-1.653,2.621-3.85,5.344-6.885,6.373c-4.08,1.387-11.882,1.141-14.506,5.035c-0.809,1.199-3.026,6.146-1.184,7.303
		c2.866,1.797,5.766,8.252,3.274,11.264c-1.851,2.211-3.195,0.989-5.146,0.58c-1.236-0.259-2.332-0.168-3.553,0.291
		c-8.172,3.08-7.538,12.801-3.593,18.758c0.606,0.916,1.481,1.697,2.06,2.598c0.534,0.829,0.641,1.615,1.145,2.457
		c2.732,4.566,4.514,9.005,6.061,14.067c0.915,3,1.14,5.283,2.16,7.876c0.557,1.416,0.477,3.068,1.012,4.502
		c1.994,5.295,4.644,9.85,7.401,14.759c1.084,1.928,2.094,4.442,3.075,6.669c1.897,4.305,4.23,8.072,6.075,11.875
		c5.065,10.43,10.982,22.503,19.536,30.527c2.145,2.014,4.621,3.695,6.859,5.602c3,2.557,4.044,5.199,6.144,8.416
		c1.759,2.697,2.864,5.14,4.14,8.105c3.562,8.275,6.546,16.953,9.39,25.503c2.728,8.199,6.094,16.919,8.892,24.813
		c2.037,5.748,4.324,11.263,7.426,16.494c1.922,3.239,4.322,6.908,7.857,8.549c5.015,2.328,10.931,0.609,15.685,3.895
		c3.372,2.332,6.947,4.444,10.131,7.034c1.405,1.145,6.556,6.018,4.66,8.226c-1.792,2.088-7.457-1.694-7.173,3.135
		c0.107,1.811-0.009,2.26-1.838,2.817c-2.482,0.757-5.2,0.677-7.766,0.657c-3.343-0.027-6.672-0.356-10.012-0.454
		c-4.274-0.124-8.471-0.259-12.686-1.063c-3.804-0.729-7.506-1.86-11.217-2.95c-6.107-0.532-12.219-1.023-18.324-1.577
		c-0.977-0.088-3.391-0.82-4.255-0.291c-0.958,0.586-0.329,1.594-0.909,2.424c-1.512,2.162-4.208,3.383-6.204,5.061
		c-3.586,3.011-7.092,4.182-11.816,3.347c-2.949-0.522-2.54-2.188-1.823-4.493c0.275-0.89,0.6-1.922,1.279-2.604
		c0.104-0.104,2.048-1.291,2.003-0.921c0.193-1.608,0.57-3.468,0.194-5.071c-0.332-1.41-1.419-2.09-1.945-3.377
		c-0.977-2.385-1.32-5.164-1.775-7.686c-0.564-3.139,2.479-5.568,1.416-8.689c-0.336-0.989-1.393-1.476-2.169-2.15
		c-1.647-1.427-3.548-2.838-4.976-4.495c-4.199-4.876-8.445-10.171-12.672-15.197c-4.154-4.944-9.203-9.474-12.844-14.808
		c-2.931-4.292-5.262-8.971-7.156-13.805c-1.128-2.877-2.191-4.834-4.463-7.075c-3.477-3.433-8.698-5.933-11.303-10.111
		c-4.073-6.535-7.002-15.788-8.71-23.024c-0.769-3.258-1.546-6.531-2.411-9.788c-1.812-6.831-3.71-13.3-7.178-19.53
		c-1.733-3.117-2.201-10.205-6.182-11.561c-3.601-1.225-5.824,3.773-8.311,5.383c-2.343,1.517-4.622,2.583-6.564,4.652
		c-2.709,2.885-5.885,5.215-8.555,8.053c-1.516,1.609-3.175,3.053-4.815,4.53c-12.613,11.358-28.616,16.479-42.323,26.007
		c-3.109,2.164-5.573,5.166-8.288,7.27c-3.075,2.383-5.435,5.472-8.48,7.9c-7.159,5.712-14.585,11.261-22.446,15.978
		c-2.194,1.317-26.804,12.229-26.994,10.65c1.292,10.772,2.833,21.319,4.77,31.983c0.775,4.27,3.351,7.815,5.512,11.473
		c0.642,1.086,4.886,10.54,4.718,10.544c10.928-0.214,22.197,0.892,32.987,2.593c2.72,0.43,5.239,1.408,7.948,1.846
		c7.311,1.182,13.424,3.271,18.746,8.591c5.637,5.634,11.006,13.661,2.927,19.495c-2.541,1.837-4.52,5.133-8.057,3.889
		c-2.314-0.816-4.694-2.656-6.206-4.568c-1.133-1.432-1.955-4.557-4.377-3.798c0.386,2.175,2.044,8.479,0.691,10.356
		c-0.814,1.131-4.457,0.757-5.702,0.734c-1.363-0.023-2.271-0.041-3.302-0.902c-0.39-0.325-0.906-0.449-1.353-0.672
		c-1.312-0.66-2.51-1.418-3.543-2.455c-0.99-0.99-2.395-1.266-3.631-1.91c-2.01-1.051-4.324-0.682-6.459-0.291
		c-3.159,0.58-6.261,1.613-9.262,2.739c-1.145,0.431-2.279,0.876-3.406,1.352c-0.657,0.276,0.377,6.129,0.245,6.919
		c-0.67,4.004-4.948,4.133-7.924,2.021c-0.887-0.629-1.416-1.352-2.168-1.871c-3.277-2.262-5.141-5.998-9.303-6.204
		c-5.995-0.299-12.896,0.593-18.667-1.144c-8.166-2.456-17.75-5.195-24.166-11.1c-4.55-4.189-6.361-9.795-9.462-14.979
		c-2.741-4.581-9.136-1.24-12.592,0.912c-6.168,3.842-16.044,3.991-22.815,1.871c-5.156-1.614-10.142-3.316-15.132-5.292
		c-10.984-4.349-20.391-9.938-30.466-16.011c-4.437-2.675-8.328-6.117-12.349-9.355c-1.898-1.529-3.804-3.067-5.842-4.408
		c-1.967-1.293-4.717-3.132-6.857-4.011c-3.219-1.319-5.086,2.714-6.131,5.058c-4.968,11.148-5.393,23.213-15.439,31.383
		c-14.809,12.04-45.715,19.971-63.652,12.182c-3.216-1.397-5.453-3.536-8.275-5.608c-3.394-2.493-7.491-3.726-10.312-7.015
		c-2.285-2.666-4.229-6.109-5.945-9.16c-0.519-0.922-7.587-13.721-6.751-14.186c-2.67,1.486-5.088,3.571-8.252,3.862
		c-7.01,0.64-5.106-10.36-7.673-14.403c-2.872-4.525-6.872-8.205-9.441-12.941c-4.054-7.475-5.634-19.693-2.302-27.703
		c3.547-8.526,12.32-12.869,16.226-21.017c1.636-3.413,3.722-6.78,5.363-10.165c1.558-3.213,2.28-7.508,4.19-10.547
		c4.618-7.348,10.112-18.617,20.773-13.376c3.328,1.636,6.254,4.577,8.438,7.52c2.551,3.434,2.946,7.388,4.772,11.155
		c0.796,1.635,1.945,4.009,3.263,5.126c0.661-0.535,1.502-1.321,1.886-2.118c0.857-1.781,0.453-4.052,0.879-5.964
		c0.49-2.196,1.557-4.276,2.329-6.38c0.85-2.316,1.721-4.67,2.509-6.945c1.513-4.367,3.09-8.242,4.797-12.5
		c0.881-2.199,0.885-4.542,1.932-6.724c0.989-2.058,2.281-3.979,3.116-6.049c4.268-10.581,6.901-20.718,13.686-30.167
		c6.88-9.582,15.738-17.74,25.798-23.904c18.311-11.217,37.743-9.99,58.238-12.508c23.84-2.93,46.885-14.293,66.46-27.793
		c2.556-1.051,4.779-1.992,7.099-3.17c1.251-0.635,2.483-0.727,3.711-1.334c3.015-1.486,6.278-2.357,9.317-3.771
		c2.435-1.134,4.043-2.923,6.307-4.274c1.66-0.99,3.551-1.152,5.217-2.266c3.32-2.217,7.109-4.172,10.25-6.572
		c3.445-2.631,6.817-4.392,10.514-6.674c1.949-1.203,3.816-2.059,5.802-3.061c5.261-2.656,13.418-3.332,17.049-8.221
		c5.492-7.393,0.771-13.936-3.077-20.688c-4.466-7.838-7.241-16.852-9.727-25.482c-1.718-5.966-1.557-12.831-1.577-19.047
		c-0.016-4.491,1.067-8.822,1.716-13.237c0.573-3.903,0.114-8.235,1.198-12.02c2.422-8.45,3.467-17.669,6.568-25.85
		c2.61-6.885,7.782-14.179,12.875-19.393c5.481-5.612,11.58-7.557,18.45-10.87c7.436-3.585,13.972-8.699,21.652-11.836
		c7.505-3.065,15.312-5.282,23.411-5.9c4.609-0.351,9.232-0.265,13.85-0.237c4.025,0.023,8.438-0.768,12.397,0.013
		c2.603,0.513,5.296,1.396,8.119,1.692c8.53,0.894,17.564,3.553,24.899,8.092c7.612,4.709,17.405,4.39,25.021,9.164
		c2.01,1.26,4.158,2.155,5.963,3.724c1.977,1.719,3.438,3.944,5.625,5.438c2.897,1.978,6.444,3.542,8.893,6.076
		c1.959,2.028,4.021,3.381,6.007,5.45c2.426,2.527,4.62,5.736,6.673,8.587c1.924,2.674,3.502,5.448,5.424,8.1
		c1.589,2.195,2.692,5.05,4.387,7.092c3.088,3.72,5.705,8.624,7.205,13.235c0.821,2.524,1.117,5.08,1.283,7.729
		c0.284,4.527,0.563,9.576-0.425,14.04c-0.302,0.055-0.676,0.073-0.976,0.116c-0.982,0.198-2.708,11.044-2.961,12.123
		c-1.149,4.896-2.068,9.842-2.926,14.797c-0.857,4.945-4.65,9.078-0.883,13.57C521.104,411.73,521.339,412.072,521.511,412.387z"/>
	<g>
		<path d="M214.184,52.111c6.849-3.716,13.698-7.432,20.546-11.147c0.583-0.229,1.184-0.423,1.748-0.692
			c5.802-2.759,11.53-5.686,17.413-8.258c7.129-3.115,14.36-6.01,21.602-8.859c8.104-3.189,16.382-5.896,24.766-8.248
			c13.905-3.899,27.915-7.396,41.99-10.618c7.49-1.713,15.014-3.283,22.68-4.012c3.641-0.346,7.283-0.471,10.904,0.242
			c4.615,0.909,7.778,3.551,9.592,7.889c1.113,2.663,1.852,5.427,2.471,8.231c1.016,4.604,1.798,9.273,3.071,13.805
			c1.854,6.596,3.94,13.133,6.142,19.622c2.405,7.092,5.021,14.112,7.607,21.141c1.898,5.158,3.875,10.287,5.855,15.414
			c1.857,4.81,3.756,9.604,5.659,14.396c1.706,4.295,3.431,8.583,5.167,12.865c1.866,4.599,3.74,9.193,5.639,13.778
			c1.992,4.81,4.013,9.607,6.031,14.405c1.812,4.306,3.623,8.612,5.465,12.904c1.9,4.427,3.83,8.84,5.758,13.255
			c2.182,4.994,4.35,9.994,6.572,14.971c2.383,5.331,4.81,10.643,7.237,15.954c2.328,5.09,4.639,10.188,7.035,15.245
			c2.897,6.113,5.815,12.218,8.837,18.271c3.479,6.967,7.077,13.874,10.631,20.804c0.172,0.337,0.407,0.642,0.613,0.96
			c0.553-0.214,1.034-0.4,1.564-0.606c5.631,8.427,11.219,16.79,16.903,25.298c1.11-0.932,2.128-1.747,3.101-2.609
			c5.133-4.543,10.041-9.344,15.551-13.45c3.878-2.89,7.939-5.455,12.578-6.989c4.412-1.459,8.857-1.792,13.336-0.368
			c5.532,1.758,9.739,5.36,13.362,9.75c0.329,0.4,0.669,0.792,1.005,1.187c1.394,2.569,2.787,5.137,4.181,7.706
			c0.266,0.823,0.548,1.642,0.794,2.47c1.068,3.575,1.471,7.234,1.334,10.956c-0.279,7.544-2.559,14.531-5.982,21.184
			c-4.594,8.92-10.859,16.563-18.057,23.484c-7.357,7.074-15.488,13.143-24.188,18.465c-0.699,0.427-1.349,0.937-2.021,1.41
			c-6.335,3.437-12.67,6.875-19.005,10.311c-0.278,0.074-0.572,0.11-0.83,0.225c-3.65,1.614-7.271,3.29-10.944,4.847
			c-7.084,3.002-14.356,5.479-21.748,7.609c-9.318,2.684-18.799,4.573-28.41,5.817c-1.254,0.16-2.318,0.584-3.322,1.332
			c-7.538,5.611-15.357,10.818-23.299,15.83c-7.119,4.494-14.336,8.838-21.579,13.131c-11.102,6.58-22.449,12.717-33.978,18.518
			c-11.006,5.537-22.181,10.695-33.644,15.226c-8.059,3.185-16.233,6.007-24.594,8.302c-11.488,3.15-23.167,4.586-35.076,4.002
			c-7.534-0.369-14.913-1.564-21.938-4.436c-5.11-2.092-9.709-4.93-13.21-9.32c-0.261-0.328-0.671-0.535-1.012-0.799
			c-0.79-1.455-1.579-2.91-2.369-4.364c-0.032-0.429,0.019-0.885-0.107-1.284c-1.686-5.287-1.025-10.41,1.201-15.359
			c4.419-9.828,12.094-16.004,22.155-19.41c5.856-1.982,11.911-2.809,18.071-2.967c0.509-0.014,1.019-0.049,1.712-0.082
			c-3.838-10.662-7.603-21.112-11.368-31.569c0.938-0.72,1.737-1.334,2.548-1.957c-0.095-0.319-0.143-0.555-0.235-0.772
			c-3.302-7.69-6.489-15.433-9.948-23.052c-3.722-8.198-7.586-16.337-11.596-24.398c-5.159-10.372-10.443-20.684-15.831-30.94
			c-4.005-7.627-8.247-15.133-12.409-22.676c-7.058-12.79-14.429-25.396-22.187-37.772c-4.602-7.338-9.186-14.695-14.01-21.887
			c-5.04-7.513-10.295-14.885-15.576-22.231c-6.077-8.457-12.593-16.573-19.544-24.331c-5.292-5.906-10.801-11.593-16.929-16.66
			c-0.894-0.739-1.562-1.865-2.064-2.938c-0.884-1.888-0.669-3.897-0.169-5.866c0.792-3.113,2.344-5.861,4.143-8.484
			c3.598-5.245,7.979-9.796,12.629-14.094c8.258-7.632,17.031-14.646,25.95-21.483c9.387-7.196,19.007-14.071,28.925-20.509
			c7.469-4.848,15.129-9.401,22.698-14.095C212.597,53.219,213.383,52.652,214.184,52.111z"/>
		<g display="none">
			<g display="inline">
				<g>
					<path fill="#FFFFFF" d="M254.067,366.11l1.071-0.269c68.454-17.209,148.402-41.616,230.984-113.833l0.857-0.75l17.899,26.789
						l-0.354,0.551c-24.855,38.801-73.698,66.708-110.296,83.286c-41.669,18.876-90.473,33.239-127.366,37.487l-0.787,0.09
						L254.067,366.11z"/>
				</g>
			</g>
		</g>
	</g>
</g>
</svg>
